{
	"asset":{
		"generator":"Khronos glTF Blender I/O v3.5.30",
		"version":"2.0"
	},
	"extensionsUsed":[
		"KHR_lights_punctual"
	],
	"extensionsRequired":[
		"KHR_lights_punctual"
	],
	"extensions":{
		"KHR_lights_punctual":{
			"lights":[
				{
					"color":[
						1,
						1,
						1
					],
					"intensity":54351.41306588226,
					"type":"point",
					"name":"Light"
				},
				{
					"color":[
						1,
						1,
						1
					],
					"intensity":54351.41306588226,
					"type":"point",
					"name":"Light.001"
				},
				{
					"color":[
						1,
						1,
						1
					],
					"intensity":54351.41306588226,
					"type":"point",
					"name":"Light.002"
				},
				{
					"color":[
						1,
						1,
						1
					],
					"intensity":54351.41306588226,
					"type":"point",
					"name":"Light.003"
				},
				{
					"color":[
						1,
						1,
						1
					],
					"intensity":129906.59791564941,
					"type":"directional",
					"name":"Light.004"
				}
			]
		}
	},
	"scene":0,
	"scenes":[
		{
			"name":"Scene",
			"nodes":[
				0,
				1,
				2,
				3,
				4,
				5,
				6,
				7,
				8,
				9,
				10,
				11
			]
		}
	],
	"nodes":[
		{
			"mesh":0,
			"name":"BSurfaceMesh.002"
		},
		{
			"extensions":{
				"KHR_lights_punctual":{
					"light":0
				}
			},
			"name":"Light",
			"rotation":[
				-0.28416627645492554,
				0.7269423007965088,
				0.34203392267227173,
				0.5232754945755005
			],
			"translation":[
				4.076245307922363,
				5.903861999511719,
				-1.0054539442062378
			]
		},
		{
			"mesh":1,
			"name":"EARS",
			"rotation":[
				0.7694493532180786,
				0,
				0,
				0.6387079954147339
			],
			"scale":[
				0.27536848187446594,
				0.27536848187446594,
				0.27536848187446594
			]
		},
		{
			"mesh":2,
			"name":"eye left",
			"rotation":[
				-0.6592584848403931,
				0,
				0,
				0.7519164085388184
			],
			"scale":[
				-0.2206975221633911,
				-0.22069750726222992,
				-0.22069750726222992
			],
			"translation":[
				0,
				-0.08279947936534882,
				-0.06787222623825073
			]
		},
		{
			"mesh":3,
			"name":"eye right",
			"rotation":[
				0.7519164085388184,
				0,
				0,
				0.6592584848403931
			],
			"scale":[
				0.2206975221633911,
				0.22069750726222992,
				0.22069750726222992
			],
			"translation":[
				0,
				-0.08279947936534882,
				-0.06787222623825073
			]
		},
		{
			"mesh":4,
			"name":"eyebrow",
			"rotation":[
				0.9976469874382019,
				0.06856077164411545,
				0,
				0
			],
			"scale":[
				0.09028904139995575,
				0.055166926234960556,
				0.09083738923072815
			],
			"translation":[
				0.39019325375556946,
				-0.04807622730731964,
				1.0131593942642212
			]
		},
		{
			"name":"BezierCircle",
			"rotation":[
				0.7125141620635986,
				0.02984369918704033,
				0.047715429216623306,
				0.6993970274925232
			],
			"translation":[
				0.4433509111404419,
				-1.3768458366394043,
				7.037159442901611
			]
		},
		{
			"mesh":5,
			"name":"hair joined",
			"rotation":[
				-0.21510396897792816,
				-0.09017998725175858,
				0.721556544303894,
				0.6518849730491638
			],
			"scale":[
				-0.2751566469669342,
				-0.2751566171646118,
				-0.2751566469669342
			],
			"translation":[
				-1.6669776439666748,
				-0.30777880549430847,
				0.4651411771774292
			]
		},
		{
			"extensions":{
				"KHR_lights_punctual":{
					"light":1
				}
			},
			"name":"Light.001",
			"rotation":[
				-0.28416627645492554,
				0.7269423007965088,
				0.34203392267227173,
				0.5232754945755005
			],
			"translation":[
				-5.4210100173950195,
				-2.3660888671875,
				0.6965564489364624
			]
		},
		{
			"extensions":{
				"KHR_lights_punctual":{
					"light":2
				}
			},
			"name":"Light.002",
			"rotation":[
				-0.28416627645492554,
				0.7269423007965088,
				0.34203392267227173,
				0.5232754945755005
			],
			"translation":[
				0.8526716232299805,
				5.2032084465026855,
				-1.0349630117416382
			]
		},
		{
			"extensions":{
				"KHR_lights_punctual":{
					"light":3
				}
			},
			"name":"Light.003",
			"rotation":[
				-0.28416627645492554,
				0.7269423007965088,
				0.34203392267227173,
				0.5232754945755005
			],
			"translation":[
				3.2016475200653076,
				-5.8538432121276855,
				2.321197509765625
			]
		},
		{
			"extensions":{
				"KHR_lights_punctual":{
					"light":4
				}
			},
			"name":"Light.004",
			"rotation":[
				-0.44464102387428284,
				0.050672512501478195,
				-0.005662196781486273,
				0.8942564725875854
			],
			"translation":[
				1.23868727684021,
				9.212625503540039,
				8.734649658203125
			]
		}
	],
	"materials":[
		{
			"doubleSided":true,
			"name":"BSurfaceMesh",
			"pbrMetallicRoughness":{
				"baseColorFactor":[
					0.6266624331474304,
					0.26824548840522766,
					0.20685890316963196,
					1
				],
				"metallicFactor":0,
				"roughnessFactor":1
			}
		},
		{
			"doubleSided":true,
			"name":"Material.001",
			"pbrMetallicRoughness":{
				"baseColorFactor":[
					0,
					0,
					0,
					1
				],
				"metallicFactor":0,
				"roughnessFactor":0
			}
		},
		{
			"doubleSided":true,
			"name":"Material.004",
			"pbrMetallicRoughness":{
				"baseColorFactor":[
					0.800000011920929,
					0.800000011920929,
					0.800000011920929,
					1
				],
				"metallicFactor":0,
				"roughnessFactor":0
			}
		},
		{
			"doubleSided":true,
			"name":"Material.003",
			"pbrMetallicRoughness":{
				"baseColorFactor":[
					0.14240024983882904,
					0.045508913695812225,
					0.009679839946329594,
					1
				],
				"metallicFactor":0,
				"roughnessFactor":0
			}
		},
		{
			"doubleSided":true,
			"name":"eyebrows",
			"pbrMetallicRoughness":{
				"baseColorFactor":[
					0.22025755047798157,
					0.09371154010295868,
					0.04158414527773857,
					1
				],
				"metallicFactor":0,
				"roughnessFactor":0.5
			}
		},
		{
			"doubleSided":true,
			"name":"Hair",
			"pbrMetallicRoughness":{
				"baseColorFactor":[
					0.18205492198467255,
					0.8000000715255737,
					0.21461796760559082,
					1
				],
				"metallicFactor":0,
				"roughnessFactor":0.5
			}
		}
	],
	"meshes":[
		{
			"name":"BSurfaceMesh.002",
			"primitives":[
				{
					"attributes":{
						"POSITION":0,
						"NORMAL":1
					},
					"indices":2,
					"material":0
				}
			]
		},
		{
			"name":"Sphere.003",
			"primitives":[
				{
					"attributes":{
						"COLOR_0":3,
						"POSITION":4,
						"NORMAL":5
					},
					"indices":6,
					"material":0
				}
			]
		},
		{
			"name":"Sphere.006",
			"primitives":[
				{
					"attributes":{
						"POSITION":7,
						"TEXCOORD_0":8,
						"NORMAL":9
					},
					"indices":10,
					"material":1
				},
				{
					"attributes":{
						"POSITION":11,
						"TEXCOORD_0":12,
						"NORMAL":13
					},
					"indices":14,
					"material":2
				},
				{
					"attributes":{
						"POSITION":15,
						"TEXCOORD_0":16,
						"NORMAL":17
					},
					"indices":18,
					"material":3
				}
			]
		},
		{
			"name":"Sphere.009",
			"primitives":[
				{
					"attributes":{
						"POSITION":19,
						"TEXCOORD_0":20,
						"NORMAL":21
					},
					"indices":18,
					"material":3
				},
				{
					"attributes":{
						"POSITION":22,
						"TEXCOORD_0":23,
						"NORMAL":24
					},
					"indices":14,
					"material":2
				},
				{
					"attributes":{
						"POSITION":25,
						"TEXCOORD_0":26,
						"NORMAL":27
					},
					"indices":28,
					"material":1
				}
			]
		},
		{
			"name":"Cube.002",
			"primitives":[
				{
					"attributes":{
						"POSITION":29,
						"NORMAL":30
					},
					"indices":31,
					"material":4
				}
			]
		},
		{
			"name":"NurbsPath.065",
			"primitives":[
				{
					"attributes":{
						"POSITION":32,
						"TEXCOORD_0":33,
						"NORMAL":34
					},
					"indices":35,
					"material":5
				}
			]
		}
	],
	"accessors":[
		{
			"bufferView":0,
			"componentType":5126,
			"count":2505,
			"max":[
				0.8997774720191956,
				0.986495316028595,
				1.2123768329620361
			],
			"min":[
				-0.8997774720191956,
				-1.696007490158081,
				-0.9861762523651123
			],
			"type":"VEC3"
		},
		{
			"bufferView":1,
			"componentType":5126,
			"count":2505,
			"type":"VEC3"
		},
		{
			"bufferView":2,
			"componentType":5123,
			"count":14784,
			"type":"SCALAR"
		},
		{
			"bufferView":3,
			"componentType":5123,
			"count":92775,
			"normalized":true,
			"type":"VEC4"
		},
		{
			"bufferView":4,
			"componentType":5126,
			"count":92775,
			"max":[
				4.054729461669922,
				1.1180342435836792,
				2.66778302192688
			],
			"min":[
				-4.054815769195557,
				-0.23337240517139435,
				0.5960137844085693
			],
			"type":"VEC3"
		},
		{
			"bufferView":5,
			"componentType":5126,
			"count":92775,
			"type":"VEC3"
		},
		{
			"bufferView":6,
			"componentType":5125,
			"count":141132,
			"type":"SCALAR"
		},
		{
			"bufferView":7,
			"componentType":5126,
			"count":164,
			"max":[
				-1.1737127304077148,
				4.528779029846191,
				0.8430542945861816
			],
			"min":[
				-2.1956334114074707,
				4.384093284606934,
				-0.17886680364608765
			],
			"type":"VEC3"
		},
		{
			"bufferView":8,
			"componentType":5126,
			"count":164,
			"type":"VEC2"
		},
		{
			"bufferView":9,
			"componentType":5126,
			"count":164,
			"type":"VEC3"
		},
		{
			"bufferView":10,
			"componentType":5123,
			"count":480,
			"type":"SCALAR"
		},
		{
			"bufferView":11,
			"componentType":5126,
			"count":494,
			"max":[
				-0.6846736073493958,
				4.384093284606934,
				1.3320932388305664
			],
			"min":[
				-2.6846723556518555,
				2.5287792682647705,
				-0.6679062247276306
			],
			"type":"VEC3"
		},
		{
			"bufferView":12,
			"componentType":5126,
			"count":494,
			"type":"VEC2"
		},
		{
			"bufferView":13,
			"componentType":5126,
			"count":494,
			"type":"VEC3"
		},
		{
			"bufferView":14,
			"componentType":5123,
			"count":2592,
			"type":"SCALAR"
		},
		{
			"bufferView":15,
			"componentType":5126,
			"count":99,
			"max":[
				-1.2183222770690918,
				4.481111526489258,
				0.7984446883201599
			],
			"min":[
				-2.151024103164673,
				4.407937526702881,
				-0.1342572271823883
			],
			"type":"VEC3"
		},
		{
			"bufferView":16,
			"componentType":5126,
			"count":99,
			"type":"VEC2"
		},
		{
			"bufferView":17,
			"componentType":5126,
			"count":99,
			"type":"VEC3"
		},
		{
			"bufferView":18,
			"componentType":5123,
			"count":384,
			"type":"SCALAR"
		},
		{
			"bufferView":19,
			"componentType":5126,
			"count":99,
			"max":[
				-1.2183222770690918,
				4.481111526489258,
				0.7984447479248047
			],
			"min":[
				-2.151024103164673,
				4.407937526702881,
				-0.13425718247890472
			],
			"type":"VEC3"
		},
		{
			"bufferView":20,
			"componentType":5126,
			"count":99,
			"type":"VEC2"
		},
		{
			"bufferView":21,
			"componentType":5126,
			"count":99,
			"type":"VEC3"
		},
		{
			"bufferView":22,
			"componentType":5126,
			"count":494,
			"max":[
				-0.6846736073493958,
				4.384093284606934,
				1.3320932388305664
			],
			"min":[
				-2.6846723556518555,
				2.5287792682647705,
				-0.6679062247276306
			],
			"type":"VEC3"
		},
		{
			"bufferView":23,
			"componentType":5126,
			"count":494,
			"type":"VEC2"
		},
		{
			"bufferView":24,
			"componentType":5126,
			"count":494,
			"type":"VEC3"
		},
		{
			"bufferView":25,
			"componentType":5126,
			"count":164,
			"max":[
				-1.1737127304077148,
				4.528779029846191,
				0.8430542349815369
			],
			"min":[
				-2.1956334114074707,
				4.384093284606934,
				-0.17886684834957123
			],
			"type":"VEC3"
		},
		{
			"bufferView":26,
			"componentType":5126,
			"count":164,
			"type":"VEC2"
		},
		{
			"bufferView":27,
			"componentType":5126,
			"count":164,
			"type":"VEC3"
		},
		{
			"bufferView":28,
			"componentType":5123,
			"count":480,
			"type":"SCALAR"
		},
		{
			"bufferView":29,
			"componentType":5126,
			"count":649809,
			"max":[
				3.0936174392700195,
				1.6719642877578735,
				2.2932376861572266
			],
			"min":[
				-11.581710815429688,
				-3.132171154022217,
				-0.19787216186523438
			],
			"type":"VEC3"
		},
		{
			"bufferView":30,
			"componentType":5126,
			"count":649809,
			"type":"VEC3"
		},
		{
			"bufferView":31,
			"componentType":5125,
			"count":994128,
			"type":"SCALAR"
		},
		{
			"bufferView":32,
			"componentType":5126,
			"count":32136,
			"max":[
				1.772554874420166,
				9.28544807434082,
				8.271739959716797
			],
			"min":[
				-5.989315986633301,
				0.28670263290405273,
				-0.055332183837890625
			],
			"type":"VEC3"
		},
		{
			"bufferView":33,
			"componentType":5126,
			"count":32136,
			"type":"VEC2"
		},
		{
			"bufferView":34,
			"componentType":5126,
			"count":32136,
			"type":"VEC3"
		},
		{
			"bufferView":35,
			"componentType":5123,
			"count":165690,
			"type":"SCALAR"
		}
	],
	"bufferViews":[
		{
			"buffer":0,
			"byteLength":30060,
			"byteOffset":0,
			"target":34962
		},
		{
			"buffer":0,
			"byteLength":30060,
			"byteOffset":30060,
			"target":34962
		},
		{
			"buffer":0,
			"byteLength":29568,
			"byteOffset":60120,
			"target":34963
		},
		{
			"buffer":0,
			"byteLength":742200,
			"byteOffset":89688,
			"target":34962
		},
		{
			"buffer":0,
			"byteLength":1113300,
			"byteOffset":831888,
			"target":34962
		},
		{
			"buffer":0,
			"byteLength":1113300,
			"byteOffset":1945188,
			"target":34962
		},
		{
			"buffer":0,
			"byteLength":564528,
			"byteOffset":3058488,
			"target":34963
		},
		{
			"buffer":0,
			"byteLength":1968,
			"byteOffset":3623016,
			"target":34962
		},
		{
			"buffer":0,
			"byteLength":1312,
			"byteOffset":3624984,
			"target":34962
		},
		{
			"buffer":0,
			"byteLength":1968,
			"byteOffset":3626296,
			"target":34962
		},
		{
			"buffer":0,
			"byteLength":960,
			"byteOffset":3628264,
			"target":34963
		},
		{
			"buffer":0,
			"byteLength":5928,
			"byteOffset":3629224,
			"target":34962
		},
		{
			"buffer":0,
			"byteLength":3952,
			"byteOffset":3635152,
			"target":34962
		},
		{
			"buffer":0,
			"byteLength":5928,
			"byteOffset":3639104,
			"target":34962
		},
		{
			"buffer":0,
			"byteLength":5184,
			"byteOffset":3645032,
			"target":34963
		},
		{
			"buffer":0,
			"byteLength":1188,
			"byteOffset":3650216,
			"target":34962
		},
		{
			"buffer":0,
			"byteLength":792,
			"byteOffset":3651404,
			"target":34962
		},
		{
			"buffer":0,
			"byteLength":1188,
			"byteOffset":3652196,
			"target":34962
		},
		{
			"buffer":0,
			"byteLength":768,
			"byteOffset":3653384,
			"target":34963
		},
		{
			"buffer":0,
			"byteLength":1188,
			"byteOffset":3654152,
			"target":34962
		},
		{
			"buffer":0,
			"byteLength":792,
			"byteOffset":3655340,
			"target":34962
		},
		{
			"buffer":0,
			"byteLength":1188,
			"byteOffset":3656132,
			"target":34962
		},
		{
			"buffer":0,
			"byteLength":5928,
			"byteOffset":3657320,
			"target":34962
		},
		{
			"buffer":0,
			"byteLength":3952,
			"byteOffset":3663248,
			"target":34962
		},
		{
			"buffer":0,
			"byteLength":5928,
			"byteOffset":3667200,
			"target":34962
		},
		{
			"buffer":0,
			"byteLength":1968,
			"byteOffset":3673128,
			"target":34962
		},
		{
			"buffer":0,
			"byteLength":1312,
			"byteOffset":3675096,
			"target":34962
		},
		{
			"buffer":0,
			"byteLength":1968,
			"byteOffset":3676408,
			"target":34962
		},
		{
			"buffer":0,
			"byteLength":960,
			"byteOffset":3678376,
			"target":34963
		},
		{
			"buffer":0,
			"byteLength":7797708,
			"byteOffset":3679336,
			"target":34962
		},
		{
			"buffer":0,
			"byteLength":7797708,
			"byteOffset":11477044,
			"target":34962
		},
		{
			"buffer":0,
			"byteLength":3976512,
			"byteOffset":19274752,
			"target":34963
		},
		{
			"buffer":0,
			"byteLength":385632,
			"byteOffset":23251264,
			"target":34962
		},
		{
			"buffer":0,
			"byteLength":257088,
			"byteOffset":23636896,
			"target":34962
		},
		{
			"buffer":0,
			"byteLength":385632,
			"byteOffset":23893984,
			"target":34962
		},
		{
			"buffer":0,
			"byteLength":331380,
			"byteOffset":24279616,
			"target":34963
		}
	],
	"buffers":[
		{
			"byteLength":24610996,
			"uri":"Boy-smaller-file.bin"
		}
	]
}
