{
	"asset":{
		"generator":"Khronos glTF Blender I/O v3.5.30",
		"version":"2.0"
	},
	"scene":0,
	"scenes":[
		{
			"name":"Scene",
			"nodes":[
				0
			]
		}
	],
	"nodes":[
		{
			"mesh":0,
			"name":"eyebrow.001",
			"rotation":[
				0.9997276067733765,
				0.023279743269085884,
				-0.0016454377910122275,
				0.000548209878616035
			],
			"scale":[
				0.08962822705507278,
				0.02675798162817955,
				0.09083738923072815
			],
			"translation":[
				0.39019325375556946,
				-0.04807622730731964,
				1.0295289754867554
			]
		}
	],
	"materials":[
		{
			"doubleSided":true,
			"name":"eyebrows",
			"pbrMetallicRoughness":{
				"baseColorFactor":[
					0.22025755047798157,
					0.09371154010295868,
					0.04158414527773857,
					1
				],
				"metallicFactor":0,
				"roughnessFactor":0.5
			}
		}
	],
	"meshes":[
		{
			"name":"Cube.001",
			"primitives":[
				{
					"attributes":{
						"POSITION":0,
						"NORMAL":1
					},
					"indices":2,
					"material":0
				}
			]
		}
	],
	"accessors":[
		{
			"bufferView":0,
			"componentType":5126,
			"count":570596,
			"max":[
				3.0525684356689453,
				1.7012944221496582,
				2.303762435913086
			],
			"min":[
				-11.530136108398438,
				-3.154177665710449,
				0.0027141571044921875
			],
			"type":"VEC3"
		},
		{
			"bufferView":1,
			"componentType":5126,
			"count":570596,
			"type":"VEC3"
		},
		{
			"bufferView":2,
			"componentType":5125,
			"count":994128,
			"type":"SCALAR"
		}
	],
	"bufferViews":[
		{
			"buffer":0,
			"byteLength":6847152,
			"byteOffset":0,
			"target":34962
		},
		{
			"buffer":0,
			"byteLength":6847152,
			"byteOffset":6847152,
			"target":34962
		},
		{
			"buffer":0,
			"byteLength":3976512,
			"byteOffset":13694304,
			"target":34963
		}
	],
	"buffers":[
		{
			"byteLength":17670816,
			"uri":"eyebrows.bin"
		}
	]
}
