{
	"asset":{
		"generator":"Khronos glTF Blender I/O v3.5.30",
		"version":"2.0"
	},
	"scene":0,
	"scenes":[
		{
			"name":"Scene",
			"nodes":[
				0
			]
		}
	],
	"nodes":[
		{
			"mesh":0,
			"name":"eyebrow",
			"rotation":[
				0.9976469874382019,
				0.06856077164411545,
				0,
				0
			],
			"scale":[
				0.09028904139995575,
				0.055166926234960556,
				0.09083738923072815
			],
			"translation":[
				0.39019325375556946,
				-0.04807622730731964,
				1.0131593942642212
			]
		}
	],
	"materials":[
		{
			"doubleSided":true,
			"name":"eyebrows",
			"pbrMetallicRoughness":{
				"baseColorFactor":[
					0.22025755047798157,
					0.09371154010295868,
					0.04158414527773857,
					1
				],
				"metallicFactor":0,
				"roughnessFactor":0.5
			}
		}
	],
	"meshes":[
		{
			"name":"Cube.002",
			"primitives":[
				{
					"attributes":{
						"POSITION":0,
						"NORMAL":1
					},
					"indices":2,
					"material":0
				}
			]
		}
	],
	"accessors":[
		{
			"bufferView":0,
			"componentType":5126,
			"count":561452,
			"max":[
				3.092578411102295,
				1.6718133687973022,
				2.2892532348632812
			],
			"min":[
				-11.581283569335938,
				-3.1275432109832764,
				-0.19488048553466797
			],
			"type":"VEC3"
		},
		{
			"bufferView":1,
			"componentType":5126,
			"count":561452,
			"type":"VEC3"
		},
		{
			"bufferView":2,
			"componentType":5125,
			"count":994128,
			"type":"SCALAR"
		}
	],
	"bufferViews":[
		{
			"buffer":0,
			"byteLength":6737424,
			"byteOffset":0,
			"target":34962
		},
		{
			"buffer":0,
			"byteLength":6737424,
			"byteOffset":6737424,
			"target":34962
		},
		{
			"buffer":0,
			"byteLength":3976512,
			"byteOffset":13474848,
			"target":34963
		}
	],
	"buffers":[
		{
			"byteLength":17451360,
			"uri":"eyebrows-1.bin"
		}
	]
}
